HIERARCHY
ROOT Hips
{
	OFFSET 0.00000 0.00000 0.00000
	CHANNELS 6 Xposition Yposition Zposition Zrotation Yrotation Xrotation 
	JOINT LHipJoint
	{
		OFFSET 0 0 0
		CHANNELS 3 Zrotation Yrotation Xrotation
		JOINT LeftUpLeg
		{
			OFFSET 1.64577 -1.42384 0.94276
			CHANNELS 3 Zrotation Yrotation Xrotation
			JOINT LeftLeg
			{
				OFFSET 2.11538 -5.81197 0.00000
				CHANNELS 3 Zrotation Yrotation Xrotation
				JOINT LeftFoot
				{
					OFFSET 2.36541 -6.49893 0.00000
					CHANNELS 3 Zrotation Yrotation Xrotation
					JOINT LeftToeBase
					{
						OFFSET 0.17759 -0.48793 1.73865
						CHANNELS 3 Zrotation Yrotation Xrotation
						End Site
						{
							OFFSET 0.00000 -0.00000 0.91205
						}
					}
				}
			}
		}
	}
	JOINT RHipJoint
	{
		OFFSET 0 0 0
		CHANNELS 3 Zrotation Yrotation Xrotation
		JOINT RightUpLeg
		{
			OFFSET -1.43750 -1.42384 0.94276
			CHANNELS 3 Zrotation Yrotation Xrotation
			JOINT RightLeg
			{
				OFFSET -2.10480 -5.78291 0.00000
				CHANNELS 3 Zrotation Yrotation Xrotation
				JOINT RightFoot
				{
					OFFSET -2.34880 -6.45329 0.00000
					CHANNELS 3 Zrotation Yrotation Xrotation
					JOINT RightToeBase
					{
						OFFSET -0.22842 -0.62757 1.80469
						CHANNELS 3 Zrotation Yrotation Xrotation
						End Site
						{
							OFFSET -0.00000 -0.00000 0.95886
						}
					}
				}
			}
		}
	}
	JOINT LowerBack
	{
		OFFSET 0 0 0
		CHANNELS 3 Zrotation Yrotation Xrotation
		JOINT Spine
		{
			OFFSET 0.06217 1.93758 -0.49272
			CHANNELS 3 Zrotation Yrotation Xrotation
			JOINT Spine1
			{
				OFFSET -0.03114 2.03621 -0.05830
				CHANNELS 3 Zrotation Yrotation Xrotation
				JOINT Neck
				{
					OFFSET 0 0 0
					CHANNELS 3 Zrotation Yrotation Xrotation
					JOINT Neck1
					{
						OFFSET 0.04421 1.41010 0.26562
						CHANNELS 3 Zrotation Yrotation Xrotation
						JOINT Head
						{
							OFFSET -0.13407 1.43847 0.06181
							CHANNELS 3 Zrotation Yrotation Xrotation
							End Site
							{
								OFFSET -0.04980 1.45844 -0.00689
							}
						}
					}
				}
				JOINT LeftShoulder
				{
					OFFSET 0 0 0
					CHANNELS 3 Zrotation Yrotation Xrotation
					JOINT LeftArm
					{
						OFFSET 2.18382 1.47753 -0.35694
						CHANNELS 3 Zrotation Yrotation Xrotation
						JOINT LeftForeArm
						{
							OFFSET 5.05460 -0.00000 0.00000
							CHANNELS 3 Zrotation Yrotation Xrotation
							JOINT LeftHand
							{
								OFFSET 3.39013 -0.00000 0.00000
								CHANNELS 3 Zrotation Yrotation Xrotation
								JOINT LeftFingerBase
								{
									OFFSET 0 0 0
									CHANNELS 3 Zrotation Yrotation Xrotation
									JOINT LeftHandIndex1
									{
										OFFSET 0.57242 -0.00000 -0.00000
										CHANNELS 3 Zrotation Yrotation Xrotation
										End Site
										{
											OFFSET 0.46150 -0.00000 -0.00000
										}
									}
								}
								JOINT LThumb
								{
									OFFSET 0 0 0
									CHANNELS 3 Zrotation Yrotation Xrotation
									End Site
									{
										OFFSET 0.46855 -0.00000 0.46855
									}
								}
							}
						}
					}
				}
				JOINT RightShoulder
				{
					OFFSET 0 0 0
					CHANNELS 3 Zrotation Yrotation Xrotation
					JOINT RightArm
					{
						OFFSET -2.06033 1.72839 -0.47437
						CHANNELS 3 Zrotation Yrotation Xrotation
						JOINT RightForeArm
						{
							OFFSET -5.07010 -0.00000 0.00000
							CHANNELS 3 Zrotation Yrotation Xrotation
							JOINT RightHand
							{
								OFFSET -3.14957 -0.00000 -0.00000
								CHANNELS 3 Zrotation Yrotation Xrotation
								JOINT RightFingerBase
								{
									OFFSET 0 0 0
									CHANNELS 3 Zrotation Yrotation Xrotation
									JOINT RightHandIndex1
									{
										OFFSET -0.71819 -0.00000 -0.00000
										CHANNELS 3 Zrotation Yrotation Xrotation
										End Site
										{
											OFFSET -0.57902 -0.00000 -0.00000
										}
									}
								}
								JOINT RThumb
								{
									OFFSET 0 0 0
									CHANNELS 3 Zrotation Yrotation Xrotation
									End Site
									{
										OFFSET -0.58786 -0.00000 0.58786
									}
								}
							}
						}
					}
				}
			}
		}
	}
}
MOTION
Frames: 6
Frame Time: .0083333
-30.1392 14.9308 0.491 0 0 0 0 0 0 -21 0 0 0 0 0 0 0 0 0 0 0 0 0 0 21 0 0 0 0 0 0 0 0 0 0 0 0 0 0 0 0 0 0 0 0 0 0 -16 0 0 21 0 0 11 0 0 0 -8 0 0 0 0 0 0 0 0 0 0 0 0 0 0 0 0 0 0 0 0 8 0 0 0 0 0 0 0 0 0 0 0 0 0 0 0 0 0
-30.1392 14.9308 0.4910 -39.4482 89.2284 -41.1635 0.0000 0.0000 0.0000 -26.4724 -19.0481 -1.7019 3.0196 10.7267 31.3636 1.8327 8.2681 -29.6740 0.1174 -2.2093 -6.0844 0.0000 0.0000 0.0000 26.5273 14.9698 -1.4805 -2.7454 -10.2711 29.8591 -2.7455 -12.3761 -37.5368 -2.5819 9.9854 -28.9293 -1.1516 2.2784 5.2634 -1.2098 3.0224 2.4113 -0.7640 1.5322 -0.4621 9.9458 4.6066 -7.3907 -4.4658 5.6198 11.0341 -2.6204 2.9279 4.9379 0.0000 0.0000 0.0000 -83.4690 1.9006 44.9412 15.5569 -24.9161 -3.4572 -0.0000 -0.0000 2.5192 17.6936 10.5360 3.3385 -7.1250 0.0000 -0.0000 -8.2857 40.8869 0.8470 0.0000 0.0000 0.0000 87.5228 -7.8593 36.2674 -19.1205 29.5682 -5.0902 0.0000 -0.0000 -17.8436 -17.2536 1.0038 -0.3117 7.1250 -0.0000 -0.0000 7.2531 -28.8964 2.8661
-30.1074 14.9240 0.4698 -35.5429 89.1570 -37.3300 0.0000 0.0000 0.0000 -26.6362 -18.9209 -1.4191 3.0024 10.6990 31.2713 1.8785 8.0502 -29.8308 0.0819 -1.8465 -5.0816 0.0000 0.0000 0.0000 26.3803 14.6038 -1.5768 -2.7940 -10.3539 30.1304 -2.7939 -11.8917 -37.4644 -2.5893 9.9985 -28.9720 -1.2756 2.2928 5.2533 -1.2438 3.0386 2.4657 -0.7287 1.5403 -0.4050 9.9953 4.6033 -7.4953 -4.4237 5.5981 11.1803 -2.6138 2.9233 4.9996 -0.0000 -0.0000 0.0000 -83.3716 1.8678 44.6329 15.3626 -24.6488 -3.3757 -0.0000 -0.0000 2.8899 17.7303 10.7210 3.4038 -7.1250 0.0000 -0.0000 -8.2877 41.0813 0.8072 -0.0000 -0.0000 0.0000 87.5854 -7.8842 36.3387 -19.1390 29.5910 -5.0993 0.0000 -0.0000 -17.7257 -17.3881 1.1986 -0.3753 7.1250 -0.0000 -0.0000 7.1357 -28.6941 2.8535
-30.0734 14.9170 0.4490 -17.6897 89.2184 -19.4875 0.0000 0.0000 0.0000 -27.0702 -18.7838 -1.1520 2.9700 10.6463 31.0960 1.8966 7.9746 -29.8998 0.0833 -1.8616 -5.1234 0.0000 0.0000 0.0000 25.9023 14.1806 -1.8697 -2.8721 -10.4851 30.5623 -2.8338 -11.4091 -37.3580 -2.6434 10.0941 -29.2820 -1.6512 2.3316 5.2125 -1.3573 3.0748 2.4658 -0.6358 1.5571 -0.3950 10.0308 4.5551 -7.5275 -4.3546 5.5219 11.3177 -2.6023 2.8944 5.0413 0.0000 -0.0000 0.0000 -83.2643 1.7966 44.4081 15.1439 -24.3462 -3.2850 -0.0000 -0.0000 3.0888 17.9082 11.0664 3.5494 -7.1250 0.0000 -0.0000 -8.1960 41.4548 0.7221 0.0000 -0.0000 0.0000 87.7046 -7.9718 36.2311 -19.1632 29.6210 -5.1113 0.0000 -0.0000 -17.6726 -17.3833 1.1411 -0.3572 7.1250 -0.0000 -0.0000 7.1433 -28.7539 2.8464
-30.0358 14.9071 0.4286 6.4322 89.2223 4.5795 0.0000 0.0000 0.0000 -27.6286 -18.7062 -0.8088 2.9435 10.6030 30.9524 1.8839 8.1093 -29.9029 0.0901 -1.9356 -5.3277 0.0000 0.0000 0.0000 25.3096 13.5618 -2.2182 -2.9522 -10.6173 30.9998 -2.8150 -11.0787 -37.0553 -2.7307 10.2458 -29.7765 -2.0899 2.3354 5.2102 -1.4953 3.0612 2.4633 -0.5323 1.5491 -0.4109 10.0373 4.5371 -7.4739 -4.2445 5.4918 11.3677 -2.5719 2.8889 5.0430 0.0000 0.0000 0.0000 -83.1668 1.8225 44.0208 14.9917 -24.1345 -3.2225 -0.0000 -0.0000 3.2754 18.2221 9.9125 3.2436 -7.1250 0.0000 -0.0000 -7.7156 40.2869 0.9027 0.0000 0.0000 0.0000 87.7953 -8.1247 36.1348 -19.2372 29.7124 -5.1479 0.0000 -0.0000 -17.8294 -17.0664 1.0861 -0.3334 7.1250 -0.0000 -0.0000 7.3926 -28.8107 2.9372
-29.9971 14.8971 0.4068 10.5609 89.0300 8.5120 0.0000 0.0000 0.0000 -28.0234 -18.6611 -0.2407 2.9106 10.5489 30.7732 1.8643 8.4024 -29.9633 0.0794 -1.8174 -5.0014 0.0000 0.0000 0.0000 24.9749 12.8758 -2.5225 -3.0571 -10.7868 31.5643 -2.7957 -10.5748 -36.6451 -2.7574 10.2915 -29.9260 -2.2908 2.3782 5.2920 -1.5697 3.1115 2.5401 -0.5012 1.5744 -0.3838 9.9779 4.5609 -7.6058 -3.9143 5.4851 11.6307 -2.4551 2.9078 5.1365 -0.0000 0.0000 0.0000 -83.0600 1.7973 43.7236 14.8266 -23.9039 -3.1553 -0.0000 -0.0000 3.5557 18.0206 11.3054 3.6491 -7.1250 0.0000 -0.0000 -8.1423 41.7127 0.6652 -0.0000 0.0000 0.0000 87.8496 -8.2090 36.1727 -19.3056 29.7966 -5.1818 0.0000 -0.0000 -17.9292 -16.9425 1.0153 -0.3093 7.1250 -0.0000 -0.0000 7.4936 -28.8840 2.9648
